<svg width="24" height="20" viewBox="0 0 24 20" fill="none" xmlns="http://www.w3.org/2000/svg">
<path d="M15.5156 14.7219L21.7617 10.6036L15.5156 6.48535V14.7219ZM16.9219 9.09695L19.207 10.6036L16.9219 12.1104V9.09695Z" fill="#303030"/>
<path d="M12.1339 2.81752C11.908 2.70868 8.63902 0.0576172 3.51562 0.0576172H2.8125V2.43835C1.32094 2.66049 0.323484 2.94966 0 3.02424V19.9425C0.491766 19.876 5.43192 18.1248 11.8295 19.7241L12 19.7667L12.1705 19.7241C18.5754 18.1229 23.506 19.8757 24 19.9425V3.02424C23.6742 2.98093 18.5811 1.29605 12.1339 2.81752ZM1.40625 18.1589V4.12918C1.87134 4.02498 2.34127 3.9354 2.8125 3.86073V16.9326H3.51562C5.03152 16.9326 6.55041 17.1986 7.97845 17.7013C5.781 17.5529 3.56452 17.7052 1.40625 18.1589ZM11.2969 17.7376C9.19191 16.4316 6.71705 15.6653 4.21875 15.5435V1.4828C8.45161 1.71048 11.0805 3.84188 11.2969 3.94955V17.7376ZM22.5938 18.1589C19.3409 17.4751 15.9559 17.4751 12.7031 18.1589V4.12918C15.9502 3.40149 19.3466 3.40149 22.5938 4.12918V18.1589Z" fill="#303030"/>
</svg>
