<svg width="23" height="20" viewBox="0 0 23 20" fill="none" xmlns="http://www.w3.org/2000/svg">
<path d="M16.1643 6.66602H8.92657C8.03828 6.66602 7.31818 7.46961 7.31818 8.46089V16.5378C7.31818 17.5291 8.03828 18.3327 8.92657 18.3327H16.1643C17.0526 18.3327 17.7727 17.5291 17.7727 16.5378V8.46089C17.7727 7.46961 17.0526 6.66602 16.1643 6.66602Z" stroke="#51ACFD" stroke-linecap="round" stroke-linejoin="round"/>
<path d="M6.59441 15.0007H5.79022C5.36364 15.0007 4.95454 14.8115 4.65291 14.4749C4.35128 14.1383 4.18182 13.6818 4.18182 13.2058V5.12886C4.18182 4.65283 4.35128 4.19629 4.65291 3.85969C4.95454 3.52309 5.36364 3.33398 5.79022 3.33398H13.028C13.4546 3.33398 13.8637 3.52309 14.1653 3.85969C14.4669 4.19629 14.6364 4.65283 14.6364 5.12886V6.02629" stroke="#51ACFD" stroke-linecap="round" stroke-linejoin="round"/>
</svg>
