<svg width="24" height="25" viewBox="0 0 24 25" fill="none" xmlns="http://www.w3.org/2000/svg">
<path d="M21.3491 9.181C21.1918 8.77259 20.728 8.56676 20.3127 8.72147C19.8977 8.8758 19.6885 9.33236 19.8457 9.74081C20.6183 11.7484 20.5699 13.9406 19.7096 15.9141C18.8265 17.9396 17.1945 19.5057 15.114 20.3238C13.0336 21.1418 10.754 21.114 8.695 20.2453C8.09795 19.9935 7.54073 19.6797 7.0295 19.3115C5.77707 18.4088 4.80282 17.1774 4.2124 15.7242C3.38079 13.6776 3.40892 11.435 4.29198 9.40909C5.17508 7.38352 6.80737 5.81734 8.88779 4.99909C10.8785 4.21639 13.0515 4.21025 15.0391 4.97222L14.4695 5.91865C14.313 6.17865 14.4333 6.35215 14.7363 6.30391L17.4424 5.87413C17.7456 5.82593 17.9099 5.55328 17.8069 5.2687L16.889 2.72749C16.7862 2.44286 16.5739 2.42242 16.4177 2.68255L15.8684 3.59496C13.4336 2.58907 10.7458 2.56537 8.29087 3.53072C5.81191 4.50567 3.86712 6.37183 2.81458 8.78575C1.76222 11.1996 1.72845 13.8724 2.71952 16.3113C3.42329 18.0433 4.58396 19.5104 6.07676 20.586C6.68577 21.0249 7.35022 21.3987 8.06135 21.6986C10.5151 22.7338 13.2315 22.7672 15.7106 21.7925C18.19 20.8178 20.1346 18.9512 21.1869 16.5372C22.2121 14.1859 22.2697 11.5731 21.3491 9.181Z" fill="#677986"/>
<path d="M11.6621 6.5C11.2965 6.5 11 6.7835 11 7.13349V13.4452L17.0338 16.4293C17.1309 16.4774 17.2348 16.5002 17.3372 16.5C17.5769 16.5 17.8083 16.3753 17.926 16.1574C18.0937 15.8465 17.9667 15.4645 17.6416 15.3037L12.3244 12.6738V7.13349C12.3244 6.7835 12.0281 6.5 11.6621 6.5Z" fill="#677986"/>
</svg>
