<svg width="24" height="24" viewBox="0 0 24 24" fill="none" xmlns="http://www.w3.org/2000/svg">
<path d="M4.08332 10.75C2.935 10.75 2 11.685 2 12.8333V19.5C2 20.6483 2.935 21.5833 4.08332 21.5833H6.58332C7.0525 21.5833 7.48414 21.425 7.83332 21.1616V10.75H4.08332Z" fill="#677986"/>
<path d="M22.0003 13.8743C22.0003 13.3735 21.802 12.9068 21.4578 12.5627C21.847 12.1368 22.0453 11.566 21.9911 10.9718C21.8936 9.91266 20.9395 9.08266 19.8178 9.08266H14.6703C14.9253 8.30848 15.3336 6.88934 15.3336 5.74934C15.3336 3.94184 13.7978 2.41602 12.8336 2.41602C11.9678 2.41602 11.3495 2.90352 11.3228 2.92352C11.2245 3.0027 11.167 3.1227 11.167 3.24934V6.07516L8.76699 11.2743L8.66699 11.3252V20.2568C9.34531 20.5768 10.2036 20.7493 10.7503 20.7493H18.3995C19.307 20.7493 20.1012 20.1377 20.2878 19.2935C20.3836 18.8593 20.3278 18.4218 20.137 18.0418C20.7528 17.7318 21.167 17.0977 21.167 16.3743C21.167 16.0793 21.0995 15.7968 20.9712 15.541C21.587 15.231 22.0003 14.5968 22.0003 13.8743Z" fill="#677986"/>
</svg>
