<svg width="178" height="29" viewBox="0 0 178 29" fill="none" xmlns="http://www.w3.org/2000/svg">
<mask id="mask0" mask-type="alpha" maskUnits="userSpaceOnUse" x="0" y="0" width="114" height="28">
<path fill-rule="evenodd" clip-rule="evenodd" d="M0.0976562 0H113.445V27.1393H0.0976562V0Z" fill="white"/>
</mask>
<g mask="url(#mask0)">
<path fill-rule="evenodd" clip-rule="evenodd" d="M103.394 10.9752C102.266 10.9752 101.315 11.2833 100.538 11.8989C99.7601 12.5086 99.2023 13.3169 98.8523 14.3172H107.721C107.389 13.3293 106.855 12.5275 106.125 11.9054C105.395 11.2833 104.48 10.9752 103.394 10.9752ZM93.3372 16.742C93.3372 15.3181 93.5804 13.9708 94.0673 12.7137C94.5542 11.4565 95.2428 10.3531 96.1332 9.41638C97.0181 8.47321 98.0748 7.73564 99.2972 7.19072C100.52 6.6452 101.874 6.36949 103.359 6.36949C104.854 6.36949 106.22 6.6452 107.454 7.19072C108.689 7.73564 109.746 8.47321 110.636 9.41638C111.521 10.3531 112.215 11.4565 112.709 12.7137C113.201 13.9708 113.445 15.3181 113.445 16.742C113.445 17.1461 113.432 17.4607 113.403 17.6858C113.374 17.9096 113.338 18.1341 113.309 18.3585H98.6794C98.8283 18.9742 99.066 19.5256 99.3806 20.0139C99.7018 20.5005 100.075 20.9176 100.497 21.2646C100.918 21.611 101.375 21.8738 101.868 22.0658C102.36 22.2526 102.871 22.3421 103.394 22.3421C104.236 22.3421 104.973 22.1501 105.603 21.7648C106.225 21.373 106.7 20.8793 107.027 20.2767H112.839C112.572 21.1297 112.162 21.9633 111.616 22.7845C111.076 23.6052 110.399 24.3369 109.604 24.9784C108.802 25.6135 107.876 26.1266 106.825 26.5177C105.781 26.9024 104.622 27.1016 103.359 27.1016C101.885 27.1016 100.533 26.8259 99.3032 26.2803C98.0748 25.7354 97.0181 24.9978 96.1386 24.0547C95.2608 23.118 94.5716 22.0146 94.0793 20.7574C93.5864 19.5002 93.3372 18.1594 93.3372 16.742ZM75.496 16.7296C75.496 17.5432 75.6209 18.2814 75.8701 18.9482C76.1198 19.6092 76.4578 20.1807 76.8978 20.6555C77.3308 21.1362 77.8411 21.5014 78.4234 21.7583C79.0112 22.0146 79.6344 22.143 80.293 22.143C80.9587 22.143 81.5814 22.0146 82.1632 21.7583C82.7509 21.5014 83.2618 21.1362 83.6953 20.6673C84.1287 20.1995 84.4722 19.6287 84.722 18.9553C84.9711 18.2814 85.096 17.5432 85.096 16.7296C85.096 15.9273 84.9711 15.1962 84.722 14.5352C84.4722 13.8754 84.1287 13.3104 83.6953 12.8421C83.2618 12.3743 82.7509 12.0079 82.1632 11.7516C81.5814 11.4948 80.9517 11.3669 80.2756 11.3669C79.6044 11.3669 78.9752 11.4948 78.3869 11.7516C77.8057 12.0079 77.2953 12.3743 76.8679 12.8421C76.4404 13.3104 76.1018 13.8754 75.8586 14.5352C75.6154 15.1962 75.496 15.9273 75.496 16.7296ZM70.0999 16.742C70.0999 15.3181 70.3256 13.9708 70.765 12.7136C71.204 11.4565 71.8391 10.3531 72.6701 9.41638C73.4956 8.47321 74.4988 7.72975 75.6749 7.17775C76.8559 6.62634 78.1862 6.35005 79.6698 6.35005C80.7565 6.35005 81.7303 6.51088 82.5846 6.83842C83.4336 7.16479 84.1936 7.58247 84.8523 8.09441V0H90.2076V26.4789H85.6363L85.3752 24.8883C84.6985 25.5104 83.8905 26.0429 82.9472 26.4789C82.0029 26.9219 80.9462 27.1393 79.7707 27.1393C78.2991 27.1393 76.9687 26.87 75.7752 26.3251C74.5762 25.7802 73.5605 25.0296 72.7181 24.0871C71.8811 23.1374 71.2334 22.034 70.7825 20.7774C70.3316 19.5191 70.0999 18.1724 70.0999 16.742ZM52.2772 16.7296C52.2772 17.5432 52.4015 18.2814 52.6572 18.9482C52.9124 19.6092 53.2624 20.1807 53.6959 20.6555C54.1294 21.1362 54.6403 21.5014 55.2275 21.7583C55.8092 22.0146 56.4324 22.143 57.0976 22.143C57.7568 22.143 58.3795 22.0146 58.9618 21.7583C59.5495 21.5014 60.0599 21.1362 60.4939 20.6673C60.9328 20.1995 61.2709 19.6287 61.5211 18.9553C61.7703 18.2814 61.8946 17.5432 61.8946 16.7296C61.8946 15.9273 61.7703 15.1962 61.5146 14.5352C61.2594 13.8754 60.9148 13.3104 60.4754 12.8421C60.0424 12.3743 59.5316 12.0079 58.9498 11.7516C58.362 11.4948 57.7388 11.3669 57.0796 11.3669C56.4025 11.3669 55.7738 11.4948 55.1926 11.7516C54.6048 12.0079 54.0999 12.3743 53.6659 12.8421C53.2385 13.3104 52.9004 13.8754 52.6512 14.5352C52.4015 15.1962 52.2772 15.9273 52.2772 16.7296ZM46.9039 16.742C46.9039 15.3181 47.1302 13.9708 47.5811 12.7137C48.032 11.4565 48.6792 10.3531 49.5107 9.41638C50.3476 8.47321 51.3628 7.72975 52.5558 7.18424C53.7499 6.63872 55.0912 6.36949 56.5747 6.36949C57.7688 6.36949 58.8435 6.58157 59.7933 6.99808C60.7425 7.42165 61.5506 7.91532 62.2092 8.49265L62.4349 6.99159H67.0116V26.4789H62.4349L62.1912 24.9978C61.5211 25.5746 60.7131 26.0688 59.7687 26.4789C58.8195 26.896 57.7568 27.1016 56.5747 27.1016C55.1026 27.1016 53.7668 26.8317 52.5738 26.2868C51.3803 25.7413 50.3651 24.9978 49.5221 24.0676C48.6792 23.1309 48.032 22.034 47.5811 20.7774C47.1302 19.5191 46.9039 18.1724 46.9039 16.742ZM30.7971 16.7232C30.7971 17.5632 30.9214 18.3202 31.1771 18.9806C31.4323 19.6481 31.7709 20.206 32.1978 20.6673C32.6193 21.1232 33.1127 21.4755 33.6825 21.7194C34.2523 21.9633 34.846 22.0853 35.4752 22.0853C36.401 22.0853 37.2325 21.8355 37.9686 21.3412C38.7047 20.8469 39.2624 20.1547 39.649 19.2693H45.1461C44.9029 20.3792 44.4994 21.4184 43.9351 22.3745C43.3708 23.3365 42.6767 24.1636 41.8392 24.8629C41.0023 25.5681 40.0465 26.1142 38.9604 26.5113C37.8797 26.9024 36.7042 27.1016 35.4398 27.1016C33.9671 27.1016 32.6138 26.8317 31.3849 26.2868C30.1559 25.7413 29.1053 24.9978 28.2209 24.0547C27.342 23.118 26.6528 22.0146 26.1604 20.7574C25.6675 19.5002 25.4184 18.1594 25.4184 16.742C25.4184 15.3311 25.6621 13.9903 26.1544 12.7331C26.6408 11.4694 27.324 10.3731 28.2029 9.42286C29.0873 8.48028 30.1385 7.72975 31.3669 7.17775C32.5958 6.62634 33.9557 6.35005 35.4398 6.35005C36.7042 6.35005 37.8732 6.54976 38.9544 6.94034C40.0285 7.33799 40.9848 7.88351 41.8158 8.57631C42.6413 9.2691 43.3413 10.0962 43.9117 11.0588C44.4754 12.0144 44.8914 13.06 45.1461 14.1823L39.649 14.2017C39.2624 13.3039 38.7047 12.6053 37.9686 12.1104C37.2325 11.6167 36.401 11.3669 35.4752 11.3669C34.846 11.3669 34.2523 11.4889 33.6825 11.7316C33.1127 11.9761 32.6138 12.329 32.1864 12.7973C31.7584 13.2586 31.4203 13.8235 31.1712 14.4775C30.9214 15.1378 30.7971 15.8884 30.7971 16.7232ZM17.338 22.4193H10.365L12.2526 17.3453H15.4384L12.571 9.62198L12.3813 9.11004L12.191 9.62198L12.1288 9.78929L10.7543 13.483L9.31758 17.3453L7.43052 22.4193H7.42344L6.67919 24.4388L6.67537 24.4482L5.92731 26.4789H0.0976562L9.78648 0.904289H14.9695L24.6583 26.4789H18.8521L17.338 22.4193Z" fill="#51ACFD"/>
</g>
<mask id="mask1" mask-type="alpha" maskUnits="userSpaceOnUse" x="117" y="1" width="61" height="28">
<path fill-rule="evenodd" clip-rule="evenodd" d="M117.505 1.01758H177.226V28.0865H117.505V1.01758Z" fill="white"/>
</mask>
<g mask="url(#mask1)">
<path fill-rule="evenodd" clip-rule="evenodd" d="M153.548 9.88686C152.647 9.88686 151.806 10.0512 151.03 10.3853C150.252 10.7187 149.569 11.172 148.967 11.7546C148.371 12.3385 147.875 13.0331 147.478 13.8391C147.086 14.6444 146.823 15.5226 146.7 16.4671H160.308C160.184 15.5371 159.922 14.6643 159.53 13.8589C159.133 13.0518 158.642 12.3577 158.057 11.7679C157.468 11.1786 156.79 10.7187 156.019 10.3853C155.247 10.0512 154.424 9.88686 153.548 9.88686ZM144.065 17.7582C144.065 16.3232 144.305 14.9797 144.784 13.7337C145.263 12.489 145.929 11.3941 146.776 10.4641C147.629 9.52631 148.628 8.79257 149.78 8.25446C150.93 7.71754 152.18 7.44849 153.53 7.44849C154.874 7.44849 156.13 7.71754 157.288 8.25446C158.444 8.79257 159.443 9.51969 160.29 10.4509C161.137 11.3808 161.797 12.4697 162.282 13.7277C162.767 14.9797 163.013 16.3232 163.013 17.7582V18.1976H162.995L162.943 18.6761H146.648C146.753 19.7313 147.015 20.6817 147.436 21.5268C147.857 22.3791 148.383 23.1068 149.008 23.7027C149.639 24.2932 150.34 24.7579 151.123 25.0787C151.906 25.4062 152.712 25.5711 153.548 25.5711C154.185 25.5711 154.798 25.485 155.376 25.3147C155.96 25.1377 156.498 24.8957 156.995 24.5749C157.491 24.2529 157.941 23.8665 158.339 23.4144C158.736 22.9557 159.074 22.4574 159.35 21.9072H162.224C161.891 22.7589 161.452 23.5715 160.897 24.3257C160.342 25.0787 159.694 25.7342 158.946 26.2916C158.198 26.8484 157.369 27.2878 156.457 27.6086C155.54 27.93 154.564 28.0865 153.53 28.0865C152.18 28.0865 150.93 27.8187 149.78 27.2811C148.628 26.7442 147.629 26.0099 146.776 25.0727C145.929 24.1349 145.263 23.0412 144.784 21.7886C144.305 20.5366 144.065 19.1938 144.065 17.7582ZM172.379 1.41966V6.48301H176.868H177.226V6.88449V8.67099V9.07247H176.868H172.379V14.1647V14.5662H172.02H170.417H170.059V14.1647V9.07006L165.593 9.05682L165.235 9.05561V8.65654V6.88449V6.48301H165.593H170.059V1.41966V1.01758H170.417H172.02H172.379V1.41966ZM128.476 18.7537L120.192 6.41319V27.5297H117.505V1.41966H119.819L128.886 14.822L137.959 1.41966H140.302V27.5297H137.633V6.43305L129.283 18.7537H128.476Z" fill="white"/>
</g>
</svg>
