<svg width="24" height="24" viewBox="0 0 24 24" fill="none" xmlns="http://www.w3.org/2000/svg">
<path d="M15.2227 0H5.67188V4.21875H16.9219C20.0494 4.21875 22.5938 6.76312 22.5938 9.89062C22.5938 12.4699 20.7724 14.7158 18.3126 15.3419C18.3225 15.1666 18.3281 14.9902 18.3281 14.8125C18.3281 9.74648 14.2276 5.625 9.1875 5.625C4.13447 5.625 0 9.75998 0 14.8125C0 19.8656 4.13503 24 9.1875 24C12.5048 24 15.4149 22.2144 17.0168 19.5494C21.0628 18.7032 24 15.1268 24 11.0039C24 10.2965 24 9.48478 24 8.77734C24 3.95091 20.0484 0 15.2227 0ZM14.1094 2.8125H11.2969V1.40625H14.1094V2.8125ZM7.07812 1.40625H9.89062V2.8125H7.07812V1.40625ZM16.9219 2.8125H15.5156V1.41272C17.6427 1.49634 19.5413 2.48494 20.8351 4.00397C19.6813 3.2288 18.3309 2.8125 16.9219 2.8125ZM9.1875 22.5938C4.89689 22.5938 1.40625 19.1031 1.40625 14.8125C1.40625 10.5219 4.89689 7.03125 9.1875 7.03125C13.4522 7.03125 16.9219 10.5219 16.9219 14.8125C16.9219 19.1031 13.4522 22.5938 9.1875 22.5938ZM17.8119 17.856C17.9298 17.5196 18.0288 17.1744 18.1074 16.8215C19.0656 16.659 19.9758 16.302 20.7851 15.7749C19.9896 16.6908 18.9713 17.4163 17.8119 17.856Z" fill="white"/>
<path d="M9.1875 12.7031C10.3506 12.7031 11.2969 11.7569 11.2969 10.5938C11.2969 9.43064 10.3506 8.48438 9.1875 8.48438C8.02439 8.48438 7.07812 9.43064 7.07812 10.5938C7.07812 11.7569 8.02439 12.7031 9.1875 12.7031ZM9.1875 9.89062C9.5752 9.89062 9.89062 10.206 9.89062 10.5938C9.89062 10.9815 9.5752 11.2969 9.1875 11.2969C8.7998 11.2969 8.48438 10.9815 8.48438 10.5938C8.48438 10.206 8.7998 9.89062 9.1875 9.89062Z" fill="white"/>
<path d="M9.1875 16.9219C8.02439 16.9219 7.07812 17.8681 7.07812 19.0312C7.07812 20.1944 8.02439 21.1406 9.1875 21.1406C10.3506 21.1406 11.2969 20.1944 11.2969 19.0312C11.2969 17.8681 10.3506 16.9219 9.1875 16.9219ZM9.1875 19.7344C8.7998 19.7344 8.48438 19.419 8.48438 19.0312C8.48438 18.6435 8.7998 18.3281 9.1875 18.3281C9.5752 18.3281 9.89062 18.6435 9.89062 19.0312C9.89062 19.419 9.5752 19.7344 9.1875 19.7344Z" fill="white"/>
<path d="M4.96875 12.7031C3.80564 12.7031 2.85938 13.6494 2.85938 14.8125C2.85938 15.9756 3.80564 16.9219 4.96875 16.9219C6.13186 16.9219 7.07812 15.9756 7.07812 14.8125C7.07812 13.6494 6.13186 12.7031 4.96875 12.7031ZM4.96875 15.5156C4.58105 15.5156 4.26562 15.2002 4.26562 14.8125C4.26562 14.4248 4.58105 14.1094 4.96875 14.1094C5.35645 14.1094 5.67188 14.4248 5.67188 14.8125C5.67188 15.2002 5.35645 15.5156 4.96875 15.5156Z" fill="white"/>
<path d="M13.4062 12.7031C12.2431 12.7031 11.2969 13.6494 11.2969 14.8125C11.2969 15.9756 12.2431 16.9219 13.4062 16.9219C14.5694 16.9219 15.5156 15.9756 15.5156 14.8125C15.5156 13.6494 14.5694 12.7031 13.4062 12.7031ZM13.4062 15.5156C13.0185 15.5156 12.7031 15.2002 12.7031 14.8125C12.7031 14.4248 13.0185 14.1094 13.4062 14.1094C13.794 14.1094 14.1094 14.4248 14.1094 14.8125C14.1094 15.2002 13.794 15.5156 13.4062 15.5156Z" fill="white"/>
<path d="M8.48438 14.1094H9.89062V15.5156H8.48438V14.1094Z" fill="white"/>
</svg>
