<svg width="22" height="24" viewBox="0 0 22 24" fill="none" xmlns="http://www.w3.org/2000/svg">
<path d="M10.9997 24C12.6816 24 14.0459 22.657 14.0459 21H7.95349C7.95349 22.657 9.31777 24 10.9997 24ZM21.2563 16.9823C20.3363 16.0092 18.6149 14.5453 18.6149 9.75C18.6149 6.10781 16.0206 3.19219 12.5225 2.47688V1.5C12.5225 0.671719 11.8406 0 10.9997 0C10.1587 0 9.47682 0.671719 9.47682 1.5V2.47688C5.97874 3.19219 3.38446 6.10781 3.38446 9.75C3.38446 14.5453 1.66304 16.0092 0.743039 16.9823C0.457326 17.2847 0.33066 17.6461 0.333041 18C0.338279 18.7687 0.951134 19.5 1.86161 19.5H20.1377C21.0482 19.5 21.6615 18.7687 21.6663 18C21.6687 17.6461 21.542 17.2842 21.2563 16.9823Z" fill="#C2C2C2"/>
</svg>
