<svg width="276" height="214" viewBox="0 0 276 214" fill="none" xmlns="http://www.w3.org/2000/svg">
<g clip-path="url(#clip0)">
<path opacity="0.46" d="M12.3636 203.432C16.4747 213.51 38.4593 211.217 46.7919 211.607C63.9287 212.408 81.0766 213.009 98.2273 213.407C132.529 214.205 166.849 214.199 201.153 213.391C219.339 212.962 240.038 214.177 257.558 208.315C264.216 206.803 283.328 202.211 273.001 191.635C269.475 188.023 264.034 187.267 259.015 186.871C231.782 184.722 204.423 187.345 177.105 187.389C175.011 187.392 172.246 186.799 172.094 184.703C171.885 181.842 177.064 180.455 176.269 177.699C175.816 176.126 173.766 175.813 172.136 175.799C146.871 175.572 121.914 175.107 96.6022 175.564C70.9203 176.029 45.1971 176.957 19.5125 176.957C17.5066 176.993 15.371 177.068 13.7156 178.206C8.95608 181.474 14.295 185.894 17.7439 186.683C21.6342 187.575 26.2226 188.486 27.9195 192.108C28.3885 193.108 28.5486 194.349 27.9664 195.285C27.2628 196.415 25.7701 196.714 24.443 196.761C20.961 196.88 13.4203 195.844 12.1842 200.688C11.9249 201.671 12.0215 202.588 12.3636 203.432Z" fill="#51ACFD"/>
<path d="M60.7889 77.9827C60.7254 77.9273 60.6675 77.8692 60.6123 77.8055C60.3888 77.5507 60.2646 77.1602 60.4633 76.875C61.1145 75.9445 62.6154 77.6781 62.3754 76.0635C62.3092 75.6232 60.5654 73.5213 60.7337 73.2886C61.6028 72.0923 63.617 71.6326 64.602 72.7901C65.2669 73.5739 65.5042 74.7204 65.6643 75.6758C65.9153 77.1602 65.9374 78.6834 66.2437 80.1594C66.2713 80.2951 66.3016 80.4419 66.2381 80.5693C66.1774 80.6911 66.045 80.7659 65.9208 80.8324C65.0186 81.3143 63.6529 82.1811 62.6927 81.3586C62.5575 81.2422 62.494 81.0733 62.4306 80.9099C62.254 80.4419 62.0802 79.9766 61.9036 79.5086C61.7684 79.1514 61.6304 78.7858 61.3711 78.4978C61.2 78.304 60.982 78.1544 60.7889 77.9827Z" fill="white"/>
<path d="M37.2453 77.1243C37.3115 77.0744 37.3777 77.0218 37.4356 76.9636C37.6812 76.7282 37.8357 76.3516 37.6619 76.0497C37.0907 75.0666 35.4518 76.6701 35.8243 75.0805C35.9264 74.6457 37.8412 72.7016 37.6922 72.4523C36.9252 71.1867 34.9552 70.5609 33.8791 71.6298C33.1507 72.3526 32.8196 73.477 32.5796 74.4186C32.2071 75.8781 32.0581 77.3929 31.6305 78.8357C31.5918 78.9687 31.5504 79.1127 31.6029 79.2456C31.6525 79.373 31.7794 79.4561 31.8953 79.5336C32.7534 80.0903 34.0419 81.0678 35.0683 80.3284C35.2118 80.226 35.2918 80.0626 35.3663 79.9047C35.5815 79.4533 35.794 79.0019 36.0092 78.5533C36.172 78.2071 36.343 77.8554 36.6245 77.5895C36.8093 77.4095 37.0383 77.2793 37.2453 77.1243Z" fill="white"/>
<path d="M70.1477 93.0592C69.9436 92.4028 69.7118 91.7022 69.4966 90.9018C69.2372 89.9353 66.9885 79.1625 66.972 79.1652C66.6133 79.2511 61.3048 80.6247 61.2358 80.2536C61.7959 83.2418 62.3587 86.2327 62.9188 89.2208C63.8983 94.4383 63.2968 98.7225 58.7001 101.641C57.3703 102.486 55.9438 103.151 54.5284 103.835C52.4176 102.735 49.7799 102.445 47.4512 102.143C46.2593 101.988 45.037 101.874 43.8671 102.154C42.9456 102.375 42.1013 102.832 41.3398 103.414C39.9851 102.611 38.6193 101.83 37.3639 100.877C33.0266 97.5815 32.7838 93.2641 34.1937 88.1463C35.0021 85.2135 35.8105 82.2835 36.6162 79.3508C36.5168 79.7136 31.3407 77.8996 30.9903 77.7833C30.9738 77.7778 27.8339 88.3263 27.4945 89.2651C27.2131 90.0461 26.9234 90.7246 26.6668 91.3615C24.774 96.0279 26.9234 100.476 28.4216 104.898C29.9998 109.548 31.5753 114.198 33.1535 118.85C32.1299 122.068 31.2249 125.325 30.4495 128.612C29.1059 134.312 28.1374 140.197 28.7417 146.021C28.783 146.428 28.841 146.854 29.0838 147.178C29.368 147.558 29.8481 147.721 30.3006 147.843C32.1271 148.33 34.0226 148.488 35.9043 148.638C42.998 149.2 50.0972 149.687 57.202 150.1C57.6131 150.125 58.0573 150.139 58.4049 149.914C58.8767 149.61 59.0119 148.987 59.103 148.424C59.8728 143.633 60.2397 138.776 60.1928 133.921C60.1597 130.349 59.9031 126.785 59.6245 123.223C59.939 123.146 60.1404 122.783 60.2811 122.462C62.6098 117.108 64.9413 111.755 67.27 106.402C69.1324 102.118 71.6432 97.8668 70.1477 93.0592Z" fill="#51ACFD"/>
<path d="M56.217 81.976C54.7823 81.1867 53.1709 80.6965 51.5569 80.3753C50.1911 80.1039 48.7867 79.9377 47.4016 80.1094C45.1667 80.3891 43.0588 81.5772 41.6627 83.3524C40.0265 85.4266 39.4223 88.1184 38.9587 90.7216C38.6138 92.6574 38.3214 94.6098 38.2772 96.5788C38.2552 97.5232 38.2496 98.5202 38.4014 99.4535C38.5366 100.281 39.0222 100.459 39.7616 100.835C43.2933 102.638 47.3051 103.231 51.2202 103.447C52.506 103.519 53.8773 103.668 55.0554 103.128C56.4543 102.486 57.9663 102.051 59.4038 101.494C59.71 101.375 60.0246 101.251 60.2508 101.015C60.5157 100.738 60.6233 100.351 60.7199 99.9769C61.4538 97.0967 61.9946 94.1197 61.7214 91.1592C61.4483 88.1987 60.2839 85.23 58.0601 83.2637C57.4972 82.7625 56.8764 82.336 56.217 81.976Z" fill="white"/>
<path d="M58.0629 93.8178C58.2809 93.2971 58.3085 92.7017 58.2754 92.134C58.2312 91.389 57.6766 89.8299 56.7744 90.5333C56.7275 90.5693 56.6861 90.6219 56.6475 90.6773C56.6282 90.5665 56.6061 90.4585 56.5896 90.3477C56.4019 89.1541 56.5316 87.9107 56.1095 86.7697C55.828 86.0054 55.3176 85.3352 54.7989 84.6899C54.4595 84.2662 54.1091 83.8397 53.6511 83.5323C51.8963 82.3526 49.5869 82.1726 47.581 82.7209C46.276 83.0782 45.0399 83.9367 44.248 85.0416C44.0687 85.2936 42.0628 88.3621 42.7305 88.5089C41.6324 88.2652 40.984 88.8717 40.697 89.9462C40.548 90.4973 40.457 91.0872 40.5646 91.6383C40.6667 92.1617 40.9867 92.6408 41.4282 92.7876C41.1495 93.6931 41.006 94.6236 41.1882 95.6372C41.4779 97.2518 42.3718 98.8109 43.8866 99.6777C44.6481 100.115 45.4869 100.788 45.7793 101.655C45.9366 102.126 45.9642 102.63 45.9725 103.126C45.9807 103.494 45.9835 103.882 46.1656 104.206C46.4829 104.765 47.1975 104.92 47.8321 105.02C48.6019 105.142 49.5041 105.225 50.0532 104.668C50.5416 104.175 50.536 103.383 50.8313 102.752C51.3996 101.533 53.0634 100.935 54.1367 100.243C55.3838 99.4368 56.3964 98.2709 56.951 96.8834C57.2683 96.0886 57.3704 95.3548 57.3566 94.643C57.6628 94.4741 57.9139 94.1695 58.0629 93.8178Z" fill="#272525"/>
<path d="M44.6233 86.5647C44.6178 86.6478 44.6178 86.7364 44.6647 86.8029C44.7613 86.9386 44.9682 86.8832 45.1227 86.8195C47.7494 85.7339 50.7154 86.0634 53.5353 86.4152C54.3078 86.5121 55.2156 86.7032 55.5246 87.4232C55.7729 86.501 56.0212 85.5788 56.2695 84.6594C56.3385 84.4018 56.4075 84.1138 56.2861 83.8756C56.2006 83.7067 56.0323 83.5959 55.8722 83.4962C53.698 82.1614 51.1183 81.5826 48.5688 81.5411C47.3741 81.5217 45.8346 81.7155 45.0924 82.8067C44.4384 83.7566 44.6812 85.4791 44.6233 86.5647Z" fill="white"/>
<path d="M56.7854 92.782C56.7826 93.0147 56.7716 93.2473 56.7578 93.4799C56.606 95.7286 55.759 98.0438 53.9849 99.4257C54.2884 99.1876 55.3286 99.6445 55.6624 99.6944C56.4543 99.8162 57.2737 99.8218 58.0711 99.7414C58.2063 99.7276 58.347 99.7082 58.4546 99.6251C58.5788 99.5282 58.6312 99.3676 58.6781 99.218C59.2713 97.2601 59.8728 95.2662 59.8894 93.2168C59.9087 90.957 59.2189 88.7581 58.5181 86.6119C58.2532 85.8032 57.9552 84.9475 57.2792 84.4296C56.595 83.9062 55.6348 83.8148 54.8016 83.8287C55.2375 83.8204 55.7314 85.1607 55.828 85.4875C56.0294 86.1743 56.1011 86.9248 56.2225 87.6282C56.5177 89.3314 56.8102 91.0512 56.7854 92.782Z" fill="white"/>
<path d="M42.6945 90.1123C42.631 90.3366 42.5759 90.5609 42.5234 90.7908C42.0323 92.9924 42.1923 95.4516 43.5057 97.2794C43.2794 96.9665 42.1537 97.1077 41.8226 97.0606C41.028 96.9526 40.2389 96.7228 39.4994 96.4209C39.3725 96.3683 39.2429 96.3101 39.1628 96.1993C39.0718 96.072 39.0663 95.903 39.0635 95.7452C39.047 93.6958 39.0332 91.616 39.5933 89.647C40.2141 87.4731 41.4943 85.5622 42.7745 83.7012C43.2546 83.0005 43.7844 82.2639 44.5762 81.962C45.3791 81.6546 46.3283 81.8402 47.1201 82.0894C46.7035 81.9593 45.8509 83.103 45.6688 83.3882C45.2826 83.992 45.0039 84.6871 44.6866 85.3296C43.9278 86.8776 43.1608 88.4451 42.6945 90.1123Z" fill="white"/>
<path d="M51.5237 163.911L50.1358 179.71L45.9006 196.703L41.5356 195.54L42.4572 178.627L41.9109 168.065L51.5237 163.911Z" fill="white"/>
<path d="M46.4001 196.157C46.1711 196.866 45.989 197.689 46.3118 198.279C46.6649 198.921 47.4623 199.173 47.6637 199.96C47.7493 200.289 47.6858 200.638 47.5948 200.965C47.5258 201.209 47.432 201.458 47.2499 201.635C46.9491 201.926 46.4856 201.953 46.069 201.965C45.4178 201.981 44.7584 201.995 44.1266 201.84C43.0395 201.571 42.1565 200.835 41.3868 200.054C40.7328 199.392 40.0348 198.843 40.1865 197.783C40.2334 197.464 40.3769 197.171 40.5038 196.877C40.8377 196.105 41.0639 195.285 41.1715 194.448C43.0008 194.773 44.8301 195.097 46.6594 195.421C46.5822 195.634 46.4884 195.889 46.4001 196.157Z" fill="white"/>
<path d="M23.2621 152.506L13.2327 164.764L4.40356 179.873L8.32979 182.108L19.4683 169.386L27.227 162.227L23.2621 152.506Z" fill="white"/>
<path d="M4.42559 179.134C4.09449 179.801 3.65028 180.519 3.01016 180.71C2.30935 180.92 1.56438 180.541 0.871845 180.959C0.582138 181.133 0.380722 181.427 0.220694 181.726C0.0992925 181.95 -0.00555395 182.194 -3.57172e-05 182.446C0.0110008 182.867 0.322781 183.21 0.615247 183.512C1.06774 183.98 1.52852 184.454 2.08862 184.786C3.05155 185.359 4.19658 185.454 5.29195 185.437C6.22177 185.423 7.10193 185.523 7.73377 184.656C7.92415 184.396 8.02348 184.086 8.13936 183.786C8.4401 183 8.85121 182.258 9.35613 181.585C7.82482 180.53 6.29075 179.477 4.75944 178.422C4.66011 178.633 4.54975 178.879 4.42559 179.134Z" fill="white"/>
<path d="M6.15552 176.55L15.7241 151.066L28.8161 138.671L31.029 139.477C31.9698 136.569 33.4956 134.027 34.6462 131.149C36.1444 127.397 37.2535 123.428 38.2192 119.507C38.3103 119.136 38.4179 118.731 38.6855 118.513C38.9283 118.313 39.2373 118.321 39.5243 118.335C39.6153 118.341 39.7064 118.346 39.7974 118.352C40.7466 113.428 41.5302 108.468 42.1399 103.492C42.2448 102.647 41.8199 102.713 42.4848 102.162C42.6835 101.996 44.7832 101.827 44.7804 101.852C44.3886 107.438 43.9941 113.024 43.6023 118.61C46.0634 118.809 48.5218 119.078 50.9691 119.407C51.6037 113.771 52.2383 108.136 52.8729 102.5C52.8757 102.475 54.9091 103.026 55.0747 103.223C55.6292 103.888 55.2237 103.744 55.174 104.591C54.865 109.712 54.7381 114.846 54.785 119.975C54.9395 120 55.0967 120.022 55.2513 120.05C55.5823 120.099 56.3825 129.069 56.5122 129.967C56.9398 132.971 57.2185 135.636 58.2118 138.502C58.5512 139.479 58.6532 141.626 58.5567 143.711L61.4124 143.742L55.7451 172.355L46.9711 193.1L39.9409 191.989L37.9626 162.978L11.9524 180.699L6.15552 176.55Z" fill="#56585B"/>
<path d="M80.0197 55.9995H80.8005C84.1335 55.9995 86.8375 53.2855 86.8375 49.9401C86.8375 46.5947 84.1363 43.8807 80.8005 43.8807H79.3299C82.6629 43.8807 85.3669 41.1667 85.3669 37.8214C85.3669 34.476 82.4394 31.762 79.1037 31.762H74.5897H67.2395C63.6416 30.1364 62.4745 27.2784 62.3393 24.1462C62.2344 21.7424 62.7366 19.178 63.2056 16.8849C63.8182 13.894 64.1382 10.7646 63.178 7.84573C62.2179 4.92682 59.7512 2.24054 56.4154 1.53435C55.3697 1.3128 54.2302 1.29895 53.2645 1.71713C51.7056 2.39285 50.9689 4.04616 50.9303 5.58316C50.8917 7.12016 51.4021 8.62116 51.678 10.1388C52.0726 12.31 51.976 14.5808 51.1373 16.6495C49.5121 20.6624 45.4121 23.3985 41.61 26.0128C39.4772 27.4805 37.4382 29.0951 35.5207 30.8259C34.7426 31.5266 34.4915 32.0832 34.1025 33.0885C33.9811 33.4042 33.6003 34.9329 33.1313 34.9329C32.9767 34.9329 16.1958 34.9329 16.1958 34.9329V72.4772C18.8942 72.4772 21.5954 72.4772 24.2966 72.4772C27.5854 72.4772 32.1352 71.5024 34.5743 74.1554C35.1261 74.7564 35.5814 75.4626 36.2463 75.9334C38.3653 77.4399 42.366 76.6922 44.7885 76.6894C54.7213 76.67 64.6542 76.6672 74.587 76.6672H78.0828C80.4363 76.6672 82.3429 74.7536 82.3429 72.3913C82.3429 70.0291 80.4363 68.1154 78.0828 68.1154H79.7796H80.0169C83.3499 68.1154 86.0539 65.4015 86.0539 62.0561C86.0566 58.7134 83.3555 55.9995 80.0197 55.9995Z" fill="#51ACFD" stroke="white" stroke-width="3" stroke-miterlimit="10"/>
<path d="M25.9466 77.6782H12.7304C12.0489 77.6782 11.4971 77.1243 11.4971 76.4403V31.7566C11.4971 31.0726 12.0489 30.5187 12.7304 30.5187H25.9466C26.6281 30.5187 27.1799 31.0726 27.1799 31.7566V76.4403C27.1827 77.1243 26.6308 77.6782 25.9466 77.6782Z" fill="#51ACFD" stroke="white" stroke-width="3" stroke-miterlimit="10"/>
<path d="M137.288 89.783C137.58 88.7694 137.87 87.7558 138.113 86.7311C137.865 86.133 137.613 85.5348 137.36 84.9366C137.569 84.031 137.757 83.1171 137.983 82.2143C138.259 82.2088 139.434 82.2808 139.481 82.5549C139.581 83.1421 139.492 83.5796 139.881 84.0559C140.524 83.3525 140.952 82.6186 141.278 81.7048C141.562 80.9072 141.686 79.9628 142.737 80.5056C143.019 80.6524 143.242 80.957 143.402 81.2672C143.805 82.0509 143.981 82.8928 143.885 83.7818C143.808 84.4824 143.59 85.1138 143.695 85.8283C143.711 85.9447 143.777 86.0139 143.722 86.1745C143.592 86.5622 142.93 87.1438 142.682 87.4041C142.436 87.6644 141.995 88.2183 141.942 88.3346C141.435 89.434 141.051 90.2399 140.524 91.2203C139.448 90.7384 138.356 90.2842 137.288 89.783Z" fill="white"/>
<path d="M130.787 100.617C131.836 99.3206 132.435 97.5261 133.16 95.9808C134.449 93.2363 135.795 90.9378 137.437 88.4647C137.909 88.5672 143.902 91.0541 143.924 90.9876C142.555 95.3854 141.184 99.7804 139.815 104.178C139.327 105.748 138.814 107.363 137.782 108.642C134.785 112.353 129.309 113.708 124.875 114.846C119.908 116.122 114.716 116.779 109.586 116.477C108.441 116.41 107.484 116.078 106.502 115.69C103.983 114.699 103.29 112.171 103.494 109.54C103.621 107.92 104.399 106.286 105.784 105.449C106.96 104.74 108.394 104.674 109.766 104.602C115.935 104.283 122.08 103.511 128.133 102.287C129.289 102.054 130.128 101.434 130.787 100.617Z" fill="#56585B"/>
<path d="M112.627 201.247C112.533 203.399 112.042 205.293 113.276 207.152C113.54 207.548 113.838 207.941 114.247 208.182C114.49 208.326 114.76 208.409 115 208.553C115.215 208.68 115.4 208.852 115.613 208.979C116.509 209.517 117.657 209.201 118.628 208.816C119.108 208.625 119.668 208.295 119.638 207.777C119.622 207.501 119.428 207.271 119.257 207.049C118.683 206.31 118.259 205.454 118.019 204.548C117.93 204.216 115.535 199.929 115.701 199.854C115.704 199.854 112.627 201.247 112.627 201.247Z" fill="#51ACFD"/>
<path d="M124.254 146.572L123.015 172.878L117.811 202.46L112.183 202.507L110.235 173.659L105.564 151.853L124.254 146.572Z" fill="white"/>
<path d="M87.1825 197.306C87.3619 197.81 87.6185 198.287 87.8999 198.741C88.7469 200.095 89.8727 201.266 91.186 202.161C91.4288 202.327 91.6909 202.485 91.9806 202.504C92.7201 202.554 93.2057 201.709 93.2884 200.965C93.4623 199.416 92.7449 197.957 92.687 196.426C92.6345 195.082 92.7863 194.853 91.724 194.036C91.4398 193.817 88.8573 191.817 88.9815 191.615C87.8861 193.421 86.41 194.362 87.039 196.841C87.0804 196.999 87.1273 197.154 87.1825 197.306Z" fill="#51ACFD"/>
<path d="M93.2416 196.03C93.1368 196.151 93.0319 196.276 92.9271 196.398C92.836 196.506 92.7367 196.617 92.618 196.65C92.4387 196.703 92.2732 196.564 92.1324 196.431C90.6811 195.082 89.2823 193.645 87.9441 192.122C89.8727 187.547 91.7986 182.969 93.7272 178.394C94.1438 177.406 94.5687 176.392 94.715 175.301C94.9053 173.888 94.6156 172.493 94.3508 171.139C93.6361 167.502 93.0733 163.805 92.6677 160.067C92.4001 157.591 92.2069 154.988 92.8829 152.562C93.4265 150.606 94.4887 148.931 95.1785 147.042C95.4875 146.2 95.7441 145.275 96.3015 144.677C96.9499 143.982 97.3472 144.406 97.9514 144.586C98.6743 144.799 99.4606 145.076 100.363 145.137C102.534 145.284 104.703 145.483 106.863 145.732C107.688 145.829 110.403 145.594 110.966 146.306C111.535 147.028 110.914 150.365 110.845 151.418C110.343 159.07 109.6 166.716 108.618 174.332C108.549 174.872 108.477 175.417 108.317 175.93C108.146 176.478 107.879 176.974 107.611 177.461C106.524 179.413 105.34 181.277 104.066 183.036C102.413 185.318 100.617 187.414 98.8233 189.51C96.9581 191.684 95.1012 193.856 93.2416 196.03Z" fill="white"/>
<path d="M96.5001 88.4092C96.0282 87.8054 95.7137 87.0854 95.5923 86.3266C95.4957 85.7118 95.4323 84.9862 95.8875 84.5597C96.2241 84.2468 96.7484 84.2163 97.1816 84.3659C97.5816 84.5043 97.9238 84.7785 98.2631 85.0167C99.1019 84.0114 98.826 81.8707 99.4495 80.6245C99.88 79.7687 100.57 79.0487 101.262 78.3564C101.718 77.9022 102.187 77.4452 102.769 77.1406C105.001 75.9692 107.766 76.0218 110.086 76.8886C114.997 78.7247 114.837 84.172 115.585 88.4922C116.181 91.9318 116.123 95.363 112.373 97.008C111.413 97.429 110.332 98.1158 109.879 99.0906C109.633 99.6196 109.54 100.201 109.468 100.777C109.413 101.206 109.36 101.655 109.104 102.01C108.659 102.624 107.788 102.724 107.023 102.768C106.094 102.824 105.012 102.815 104.427 102.109C103.679 101.204 103.933 99.7386 103.34 98.7223C102.849 97.8832 102.079 97.3874 101.45 96.6951C100.804 95.9861 100.225 95.1886 99.5765 94.4713C98.7211 93.5242 97.8796 92.4497 97.9982 91.1121C98.0396 90.6413 98.1666 90.1179 97.9044 89.7246C97.7748 89.5307 97.5733 89.4061 97.3857 89.2704C97.0519 89.0267 96.7511 88.7359 96.5001 88.4092Z" fill="white"/>
<path d="M95.5703 78.2014C96.4449 76.8444 97.6452 75.6785 99.0247 74.8089C100.109 74.1249 101.265 73.499 102.529 73.2802C104.877 72.8731 110.809 75.2991 111.786 72.4494C112.15 71.386 113.855 71.0813 114.575 71.9482C114.79 72.2057 114.914 72.5269 115.132 72.779C115.353 73.0337 115.731 73.2138 116.037 73.0614C116.44 72.862 116.435 72.2639 116.793 71.998C117.24 71.6685 117.911 72.1088 118.043 72.635C118.121 72.9396 117.972 73.2858 118.041 73.5627C118.096 73.7759 118.256 73.8562 118.325 74.0556C118.485 74.507 118.653 74.8892 118.363 75.3517C118.247 75.5372 118.082 75.6896 117.988 75.8862C117.809 76.2628 117.927 76.6976 117.944 77.1102C117.983 78.0186 117.516 78.8605 116.923 79.5888C117.24 80.4723 117.467 81.4028 117.403 82.2862C117.298 83.7567 116.197 85.4266 115.618 86.7753C115.331 86.3599 115.257 85.842 115.127 85.3546C114.857 84.3244 114.313 83.3662 113.574 82.6019C113.209 82.2253 112.798 81.8957 112.462 81.4969C112.404 81.5108 112.343 81.5274 112.288 81.5412C111.932 81.6409 111.57 81.7406 111.201 81.7129C109.951 81.6243 108.706 81.7406 107.412 81.7074C106.077 81.6742 104.706 81.6825 103.45 82.1366C102.192 82.5936 101.053 83.585 100.771 84.8977C100.644 85.4876 100.658 86.1855 100.192 86.5676C98.5695 87.8969 97.8631 84.7648 96.5305 85.3269C95.5565 85.7368 96.2601 87.3181 96.674 87.9302C97.0409 88.4729 97.5486 88.9105 97.91 89.4588C98.2687 90.0072 98.4619 90.7494 98.128 91.3143C98.0508 91.4472 97.9266 91.5746 97.7721 91.5802C97.59 91.5885 97.4493 91.4279 97.3389 91.2811C95.7855 89.2234 94.4832 86.8861 94.1273 84.33C93.821 82.1228 94.4115 79.9959 95.5703 78.2014Z" fill="#56585B"/>
<path d="M125.405 142.777C125.165 139.709 124.814 136.643 124.599 133.564C124.387 130.495 124.097 127.432 123.705 124.386C122.869 117.886 121.484 111.473 117.475 106.2C116.598 105.048 115.654 103.81 114.407 103.034C113.56 102.508 112.235 102.406 111.554 101.661C111.063 101.123 111.066 100.088 111.223 99.4065C108.789 99.3649 106.143 99.4009 103.627 99.268C101.654 99.1628 102.046 100.176 101.29 101.5C100.479 102.921 98.4481 103.624 97.3031 104.693C96.2408 105.685 95.471 106.995 94.8089 108.335C93.719 110.545 92.8775 112.904 92.3726 115.35C91.887 117.706 91.7159 120.124 91.5779 122.533C91.1061 130.878 91.0482 139.252 91.4069 147.604C91.4703 149.069 91.3241 151.135 91.8621 152.503C92.4084 153.899 93.959 153.703 95.3414 153.91C98.5668 154.398 101.823 154.644 105.081 154.653C111.595 154.669 118.11 153.73 124.389 151.844C124.743 151.739 125.115 151.615 125.35 151.31C125.606 150.975 125.636 150.501 125.648 150.066C125.714 147.624 125.595 145.198 125.405 142.777Z" fill="#56585B"/>
<path d="M107.901 84.5237C106.477 83.8452 104.915 84.6234 104.239 85.8198C103.566 87.0162 103.591 88.1821 104.311 89.0544C104.99 89.8769 106.187 90.3061 107.324 90.2175C107.57 90.1981 107.813 90.1566 108.044 90.0874C109.115 89.7744 109.785 88.9852 109.918 87.919C110.1 86.4761 109.06 85.0776 107.901 84.5237ZM109.689 87.8774C109.523 89.2039 108.557 89.672 107.978 89.8381C106.753 90.1898 105.291 89.8021 104.537 88.8855C104.088 88.3371 103.71 87.3734 104.496 85.9693C104.965 85.1302 105.911 84.5071 106.91 84.5403C107.211 84.5514 107.517 84.6206 107.815 84.7619C108.889 85.2631 109.854 86.5509 109.689 87.8774Z" fill="#272525" stroke="#272525" stroke-width="2" stroke-miterlimit="10"/>
<path d="M114.688 84.7536C113.615 84.1748 112.464 84.8506 111.984 85.8808C111.504 86.9054 111.54 87.9024 112.084 88.6557C112.597 89.3646 113.488 89.7468 114.335 89.6803C114.517 89.6665 114.699 89.6305 114.873 89.5751C115.676 89.312 116.173 88.6307 116.258 87.7058C116.377 86.4457 115.568 85.2272 114.688 84.7536ZM116.082 87.6642C115.974 88.8163 115.251 89.2151 114.818 89.3535C113.907 89.6471 112.815 89.3009 112.246 88.5089C111.907 88.0381 111.617 87.2101 112.175 86.0054C112.509 85.2826 113.204 84.7426 113.946 84.7675C114.172 84.7758 114.401 84.8339 114.628 84.9558C115.441 85.3906 116.189 86.5094 116.082 87.6642Z" fill="#272525" stroke="#272525" stroke-width="2" stroke-miterlimit="10"/>
<path d="M111.733 87.1354C111.54 86.7947 111.176 86.648 110.828 86.6867C110.514 86.7227 109.978 86.9637 109.887 87.3292C109.874 87.3846 109.923 87.44 109.976 87.44C110.229 87.44 110.414 87.1991 110.641 87.1077C110.933 86.9886 111.264 87.0191 111.46 87.3292C111.59 87.5286 111.852 87.3431 111.733 87.1354Z" fill="#272525" stroke="#272525" stroke-width="2" stroke-miterlimit="10"/>
<path d="M194.305 135.095H195.309C199.591 135.095 203.062 131.612 203.062 127.313C203.062 123.015 199.591 119.532 195.309 119.532H193.419C197.701 119.532 201.172 116.048 201.172 111.75C201.172 107.452 197.412 103.968 193.127 103.968H187.327H177.886C173.264 101.88 171.766 98.2102 171.592 94.1863C171.457 91.0985 172.102 87.8057 172.704 84.8591C173.49 81.0152 173.901 76.9968 172.671 73.2471C171.437 69.4974 168.27 66.0468 163.985 65.1384C162.644 64.8532 161.176 64.8338 159.937 65.3711C157.937 66.2406 156.988 68.362 156.938 70.3365C156.889 72.3111 157.545 74.2386 157.898 76.191C158.406 78.9797 158.282 81.8959 157.203 84.5545C155.115 89.711 149.847 93.2253 144.966 96.5818C142.224 98.465 139.608 100.542 137.144 102.766C136.146 103.669 135.823 104.38 135.321 105.674C135.163 106.078 134.678 108.041 134.074 108.041C133.875 108.041 112.318 108.041 112.318 108.041V156.267C115.786 156.267 119.254 156.267 122.723 156.267C126.947 156.267 132.791 155.015 135.925 158.422C136.634 159.194 137.219 160.1 138.074 160.706C140.797 162.642 145.935 161.681 149.047 161.676C161.808 161.651 174.566 161.648 187.327 161.648H191.816C194.84 161.648 197.29 159.189 197.29 156.154C197.29 153.118 194.84 150.659 191.816 150.659H193.999H194.305C198.587 150.659 202.058 147.175 202.058 142.877C202.058 138.579 198.59 135.095 194.305 135.095Z" fill="#51ACFD" stroke="white" stroke-width="3" stroke-miterlimit="10"/>
<path d="M125.198 162.941H107.52C106.838 162.941 106.287 162.388 106.287 161.704V103.599C106.287 102.915 106.838 102.362 107.52 102.362H125.198C125.879 102.362 126.431 102.915 126.431 103.599V161.704C126.431 162.388 125.879 162.941 125.198 162.941Z" fill="#51ACFD" stroke="white" stroke-width="3" stroke-miterlimit="10"/>
<path d="M113.56 122.171L116.316 121.118L117.26 119.681L119.547 118.806C119.547 118.806 120.228 120.063 120.049 120.132C119.635 120.293 119.285 120.686 119.172 121.096C120.013 121.387 121.636 121.24 122.345 120.703C123.021 120.191 123.812 120.736 123.672 121.581C123.614 121.938 123.415 122.254 123.205 122.547C122.651 123.328 121.991 124.023 121.332 124.719C121.122 124.94 120.891 125.175 120.593 125.236C120.399 125.275 120.201 125.239 120.01 125.203C118.838 124.979 117.646 124.608 116.479 124.777C115.67 124.893 114.843 125.145 114.034 125.303L113.56 122.171Z" fill="white"/>
<path d="M101.171 120.789C102.36 121.769 104.634 121.365 106.041 121.276C106.863 121.224 114.346 119.803 114.542 120.16C115.171 121.268 115.568 122.514 115.695 123.783C115.861 125.422 115.728 125.483 114.318 126.084C111.962 127.089 109.338 127.71 106.855 128.311C103.823 129.044 100.917 130.241 97.8851 130.986C95.4708 131.578 90.3417 133.046 89.1525 129.834C88.7938 128.864 88.8545 127.793 88.9483 126.762C89.2408 123.556 89.8229 120.376 90.6838 117.272C91.0894 115.81 91.575 114.331 92.5076 113.134C94.6459 110.393 100.181 110.312 101.069 114.303C101.574 116.563 99.2315 118.753 100.986 120.62C101.047 120.681 101.108 120.736 101.171 120.789Z" fill="#56585B"/>
<path d="M253.922 63.3658L254.628 63.3326C257.644 63.1913 259.975 60.6241 259.834 57.5972C259.694 54.5703 257.136 52.2302 254.12 52.3714L252.79 52.4323C255.806 52.2911 258.138 49.7239 257.997 46.697C257.856 43.6701 255.094 41.341 252.079 41.4823L247.995 41.6733L241.348 41.9835C238.026 40.6653 236.851 38.1286 236.597 35.3038C236.401 33.1354 236.749 30.7953 237.077 28.6989C237.508 25.9655 237.665 23.1241 236.674 20.5237C235.684 17.9233 233.341 15.5998 230.293 15.0985C229.338 14.9434 228.306 14.9767 227.451 15.3948C226.071 16.0733 225.472 17.5965 225.5 18.9895C225.528 20.3825 226.055 21.7173 226.366 23.0798C226.813 25.0267 226.822 27.0843 226.151 28.9924C224.849 32.6923 221.254 35.3398 217.926 37.8627C216.058 39.2806 214.281 40.8259 212.62 42.4737C211.947 43.1411 211.743 43.6534 211.431 44.5812C211.335 44.872 211.056 46.2705 210.631 46.2899C210.49 46.2954 195.312 47.0044 195.312 47.0044L196.885 80.9623C199.327 80.8488 201.769 80.7352 204.211 80.6217C207.185 80.4832 211.26 79.4087 213.578 81.7045C214.102 82.2252 214.544 82.8427 215.164 83.2415C217.145 84.5154 220.732 83.6708 222.923 83.5655C231.907 83.128 240.89 82.707 249.874 82.2889L253.036 82.1421C255.163 82.0424 256.81 80.2312 256.711 78.0933C256.612 75.9581 254.807 74.3048 252.677 74.4045L254.214 74.3325L254.429 74.3214C257.445 74.1802 259.776 71.613 259.636 68.586C259.495 65.5647 256.937 63.2245 253.922 63.3658Z" fill="#51ACFD" stroke="white" stroke-width="3" stroke-miterlimit="10"/>
<path d="M205.803 85.2576L194.082 85.8031C193.4 85.8336 192.824 85.3074 192.791 84.6234L190.931 44.4426C190.901 43.7586 191.425 43.1798 192.106 43.1466L203.827 42.601C204.509 42.5705 205.085 43.0967 205.118 43.7807L206.978 83.9615C207.011 84.6455 206.484 85.2271 205.803 85.2576Z" fill="#51ACFD" stroke="white" stroke-width="3" stroke-miterlimit="10"/>
<path d="M210.297 88.1959C210.292 87.8747 210.289 87.5534 210.283 87.235C210.272 86.7088 210.264 86.1826 210.253 85.6592C210.253 84.1887 210.054 83.1695 209.563 81.7821C209.516 81.6464 209.464 81.5052 209.359 81.4055C209.108 81.1645 208.7 81.2753 208.374 81.3971C208.231 81.0344 208.082 80.666 207.842 80.3614C207.599 80.0568 207.243 79.8186 206.854 79.8131C206.208 79.8048 205.709 80.4362 205.596 81.0731C205.518 81.5107 205.554 82.0064 205.259 82.3387C205.171 82.4384 205.055 82.516 204.991 82.6323C204.925 82.7541 204.922 82.8981 204.922 83.0394C204.922 83.6043 204.922 84.1693 204.92 84.7342C204.92 84.9142 204.92 85.0998 205 85.2632C205.082 85.4321 205.24 85.5484 205.383 85.6703C206.843 86.9359 207.21 90.0348 207.519 91.8515C207.541 91.9844 207.568 92.1284 207.671 92.2198C207.77 92.3084 207.913 92.3278 208.051 92.3444C209.036 92.458 210.866 92.8485 210.879 91.4416C210.885 90.8822 210.49 90.2231 210.402 89.6582C210.33 89.1763 210.306 88.6861 210.297 88.1959Z" fill="white"/>
<path d="M227.732 120.412C227.36 121.232 226.957 121.977 226.546 122.6C225.983 123.453 225.001 124.109 223.988 123.982C222.807 123.832 222.007 122.741 221.312 121.772C219.747 119.598 217.965 117.579 216.006 115.757C211.02 111.121 207.599 108.16 206.404 101.17C206.103 99.4118 206.283 97.4788 206.241 95.6787C206.197 93.7955 206.374 91.929 206.192 90.0375C206.178 89.8824 206.164 89.719 206.236 89.5833C206.332 89.4033 206.548 89.3286 206.744 89.2759C207.773 88.9962 209.87 88.4036 210.907 88.8384C212.085 89.3341 212.027 90.6385 212.347 91.9401C212.527 92.6712 214.05 100.085 214.35 100.085C215.388 104.303 217.852 106.784 222.159 107.562C224.162 107.922 226.146 107.991 228.174 107.989C229.928 107.989 229.837 109.357 229.915 110.938C230.044 113.61 229.065 117.485 227.732 120.412Z" fill="#56585B"/>
<path d="M255.627 81.5939C255.632 81.5967 255.638 81.5967 255.643 81.5995C255.997 81.6853 256.33 81.3696 256.463 81.029C256.739 80.32 256.83 79.8492 256.452 79.2012C256.112 78.6196 255.619 78.0741 255.563 77.3707C255.481 76.3183 256.535 76.0081 257.332 76.0635C257.613 76.0829 257.895 76.1023 258.176 76.1217C258.383 76.1355 258.593 76.1521 258.789 76.2158C259.23 76.3598 259.556 76.7365 259.835 77.1103C260.367 77.8276 260.811 78.6113 261.159 79.4338C261.2 79.5335 261.242 79.6471 261.209 79.7495C261.178 79.8437 261.093 79.9074 261.015 79.9683C259.652 81.0899 260.017 83.4771 260.116 85.0058C260.124 85.1415 260.133 85.2855 260.055 85.399C259.981 85.5071 259.843 85.5624 259.713 85.6095C258.778 85.9529 257.343 86.601 256.526 85.676C256.413 85.5458 256.372 85.3741 256.336 85.208C256.231 84.7482 256.206 84.0974 255.977 83.682C255.71 83.1974 255.127 82.9952 254.841 82.5355C254.645 82.2226 253.764 81.2782 254.211 80.921C254.383 80.7853 254.639 80.7964 254.827 80.9099C255.133 81.0955 255.29 81.4998 255.627 81.5939Z" fill="white"/>
<path d="M254.463 113.669C255.646 112.658 256.852 111.68 258.085 110.733C259.388 109.734 260.715 108.432 261.115 106.77C261.609 104.718 261.313 102.231 261.374 100.124C261.515 95.2442 261.678 90.3646 261.796 85.4822C261.799 85.3409 256.584 85.4102 256.079 85.5237C254.239 85.9391 254.17 86.8502 253.803 88.6586C252.89 93.1395 252.222 97.6729 251.772 102.223C251.726 102.705 251.673 103.203 251.422 103.616C251.174 104.023 250.76 104.297 250.363 104.555C247.565 106.372 244.328 109.373 240.791 109.221C240.457 109.207 240.06 109.196 239.87 109.47C239.779 109.601 239.762 109.767 239.762 109.925C239.759 110.697 240.115 111.423 240.463 112.112C241.989 115.148 243.514 118.18 245.04 121.215C245.12 121.373 245.206 121.539 245.349 121.642C245.78 121.949 246.342 121.525 246.701 121.138C249.137 118.496 251.731 116.001 254.463 113.669Z" fill="#56585B"/>
<path d="M226.226 90.0017C226.085 90.6996 226.002 91.4556 225.933 92.1618C225.856 92.9594 226.052 93.7763 225.795 94.5573C225.63 95.0558 225.298 95.4767 225.042 95.9337C224.22 97.3987 224.225 99.2957 225.056 100.758C225.34 101.259 225.715 101.711 225.952 102.237C226.347 103.112 226.322 104.087 226.38 105.026C226.443 106.022 226.83 106.784 227.012 107.728C227.268 109.066 226.995 110.453 226.581 111.75C226.485 112.051 226.38 112.364 226.427 112.677C226.496 113.148 226.94 113.345 227.362 113.408C232.53 114.195 237.756 114.079 242.962 113.959C242.554 113.968 242.976 110.201 243.037 109.902C243.343 108.407 243.809 106.947 244.43 105.554C244.75 104.834 245.117 104.112 245.17 103.325C245.244 102.209 244.687 101.032 245.142 100.01C245.548 99.1018 246.469 98.4704 246.626 97.4291C246.8 96.2688 246.072 95.0087 245.501 94.0588C245.029 93.2779 244.51 92.4941 244.232 91.6162C243.991 90.8685 244.063 90.1983 243.735 89.4783C243.062 88.0022 241.955 86.6951 240.694 85.6898C240.223 85.3132 239.718 84.967 239.158 84.7399C238.49 84.4685 237.767 84.3743 237.047 84.3411C235.416 84.2608 233.808 84.4713 232.199 84.5737C230.51 84.6818 228.819 85.6289 227.726 86.9C226.97 87.7807 226.457 88.8635 226.226 90.0017Z" fill="#51ACFD"/>
<path d="M245.291 95.4519C244.987 94.9091 244.372 94.5325 243.754 94.5934C243.426 94.6266 243.164 94.7346 242.954 94.898C242.846 93.8595 242.631 92.8321 242.3 91.8323C242.077 91.1621 241.803 90.4919 241.356 89.9436C240.967 89.4645 240.46 89.0962 239.927 88.786C238.114 87.7392 235.918 87.3736 233.865 87.778C230.979 88.3457 229.252 89.9215 228.402 92.2394C228.11 93.037 227.922 93.9232 227.828 94.8869C227.826 94.9257 227.82 94.9672 227.817 95.006C227.646 94.9229 227.45 94.8731 227.224 94.8565C226.606 94.8149 225.999 95.2109 225.715 95.7648C225.431 96.3187 225.445 96.9972 225.674 97.576C225.903 98.1548 226.33 98.6394 226.827 99.0133C227.128 99.2404 227.481 99.4342 227.851 99.4702C228.143 101.713 228.94 103.871 230.717 105.172C231.942 106.07 231.942 106.424 231.948 108.028C231.951 108.85 232.111 109.778 232.787 110.246C233.143 110.492 233.587 110.57 234.014 110.617C234.602 110.681 235.193 110.703 235.783 110.681C236.238 110.664 236.721 110.609 237.072 110.321C237.615 109.877 237.648 109.066 237.626 108.363C237.568 106.432 237.587 106.671 239.008 105.704C239.933 105.075 240.636 104.217 241.199 103.256C241.947 101.974 242.463 100.589 242.753 99.1601C242.838 99.2044 242.935 99.2238 243.031 99.2321C243.492 99.2653 243.925 99.0216 244.287 98.7308C244.772 98.3403 245.183 97.8446 245.393 97.2575C245.6 96.6732 245.592 95.9947 245.291 95.4519Z" fill="white"/>
<path d="M230.847 99.0134C230.695 99.0079 230.684 99.246 230.839 99.2516C230.99 99.2571 230.999 99.0189 230.847 99.0134Z" fill="#6C4E28"/>
<path d="M229.851 100.246C229.699 100.24 229.688 100.478 229.843 100.484C229.994 100.489 230.003 100.251 229.851 100.246Z" fill="#6C4E28"/>
<path d="M232.982 100.046C232.982 100.06 232.982 100.074 232.98 100.085C232.974 100.238 233.211 100.249 233.217 100.094C233.217 100.08 233.217 100.066 233.22 100.055C233.225 99.9024 232.988 99.8913 232.982 100.046Z" fill="#6C4E28"/>
<path d="M235.339 99.3791C235.187 99.3736 235.176 99.6117 235.331 99.6173C235.482 99.6228 235.491 99.3874 235.339 99.3791Z" fill="#6C4E28"/>
<path d="M236.274 99.7721C236.122 99.7665 236.111 100.005 236.266 100.01C236.417 100.016 236.426 99.7776 236.274 99.7721Z" fill="#6C4E28"/>
<path d="M239.742 100.06C239.742 100.074 239.742 100.088 239.74 100.099C239.734 100.251 239.971 100.263 239.977 100.107C239.977 100.094 239.977 100.08 239.98 100.069C239.985 99.9164 239.748 99.908 239.742 100.06Z" fill="#6C4E28"/>
<path d="M240.959 99.1935C240.807 99.1879 240.796 99.4261 240.951 99.4316C241.102 99.4372 241.113 99.2018 240.959 99.1935Z" fill="#6C4E28"/>
<path d="M239.185 99.0495C239.033 99.044 239.022 99.2822 239.176 99.2877C239.328 99.2932 239.339 99.0551 239.185 99.0495Z" fill="#6C4E28"/>
<path d="M238.528 99.6974C238.377 99.6918 238.365 99.93 238.52 99.9355C238.672 99.9411 238.683 99.7057 238.528 99.6974Z" fill="#6C4E28"/>
<path d="M240.129 99.2433C240.115 99.2433 240.101 99.2433 240.09 99.2406C239.938 99.235 239.927 99.4732 240.082 99.4787C240.096 99.4787 240.109 99.4787 240.12 99.4815C240.272 99.4871 240.28 99.2489 240.129 99.2433Z" fill="#6C4E28"/>
<path d="M231.048 99.9716C231.034 99.9716 231.021 99.9716 231.01 99.9688C230.916 99.966 230.877 100.052 230.896 100.124C230.877 100.163 230.88 100.21 230.916 100.249C230.93 100.262 230.941 100.276 230.954 100.29C231.051 100.395 231.205 100.262 231.142 100.152C231.178 100.085 231.15 99.9771 231.048 99.9716Z" fill="#6C4E28"/>
<path d="M230.002 99.3791C229.851 99.3736 229.84 99.6117 229.994 99.6173C230.146 99.6228 230.154 99.3847 230.002 99.3791Z" fill="#6C4E28"/>
<path d="M233.54 98.8749C233.54 98.8888 233.54 98.9026 233.537 98.9137C233.531 99.066 233.769 99.0771 233.774 98.922C233.774 98.9082 233.774 98.8943 233.777 98.8832C233.783 98.7309 233.545 98.7226 233.54 98.8749Z" fill="#6C4E28"/>
<path opacity="0.1" d="M233.918 100.01C233.926 99.98 233.931 99.9495 233.934 99.919C233.976 99.5618 233.727 99.2184 233.413 99.0439C233.098 98.8695 232.729 98.8307 232.37 98.8085C231.793 98.7753 231.214 98.7753 230.637 98.8113C230.204 98.839 229.765 98.8888 229.365 99.055C228.965 99.2212 228.601 99.5203 228.444 99.9274C228.278 100.351 228.399 100.988 228.822 101.221C229.368 101.523 230.237 101.221 230.792 101.099C231.498 100.944 232.213 101.043 232.938 100.814C233.358 100.681 233.816 100.426 233.918 100.01Z" fill="#D592C1"/>
<path opacity="0.1" d="M241.756 100.467C241.77 100.44 241.784 100.412 241.795 100.381C241.925 100.044 241.77 99.6503 241.508 99.4011C241.246 99.1518 240.898 99.0217 240.556 98.9109C240.007 98.7337 239.444 98.5897 238.879 98.4789C238.454 98.3958 238.015 98.3349 237.585 98.3958C237.052 98.4706 236.18 98.8583 236.326 99.4842C236.354 99.606 236.404 99.7223 236.47 99.8276C236.649 100.113 236.944 100.312 237.259 100.434C237.573 100.556 237.91 100.609 238.244 100.661C239.028 100.783 239.814 101.01 240.608 100.996C241.047 100.974 241.552 100.844 241.756 100.467Z" fill="#D592C1"/>
<path d="M239.85 91.7298C239.955 92.1314 240.062 92.5496 240.311 92.9622C240.874 93.8955 241.756 94.621 242.212 95.6097C242.802 96.8892 242.581 98.3874 242.264 99.761C241.985 100.966 241.641 102.156 241.229 103.322C241.072 103.768 240.843 104.167 240.937 104.649C241.011 105.039 241.34 105.322 241.45 105.704C241.831 107.039 240.178 108.529 239.017 108.908C240.129 110.406 241.712 111.55 243.484 112.129C244.237 112.375 245.332 109.493 245.517 109.052C246.13 107.593 246.254 106 245.727 104.488C245.41 103.574 244.88 102.746 244.516 101.849C243.975 100.52 243.804 99.0382 244.027 97.6203C244.162 96.759 244.441 95.9143 244.433 95.042C244.427 94.4355 244.284 93.8401 244.132 93.253C243.682 91.4972 243.147 89.722 242.101 88.2432C241.119 86.853 239.37 85.4406 237.582 85.712C236.58 85.8643 235.617 86.3046 234.908 87.0357C234.459 87.501 233.176 88.8275 234.464 89.1792C235.159 89.3703 235.885 89.4008 236.602 89.4728C237.32 89.5448 238.048 89.6611 238.683 90.0073C239.5 90.4504 239.673 91.0652 239.85 91.7298Z" fill="#51ACFD"/>
<path d="M232.21 90.0711C231.189 90.3148 229.487 90.6942 229.343 91.91C229.197 93.1451 229.848 94.3165 229.445 95.6126C229.241 96.2662 228.775 96.7951 228.397 97.3629C227.768 98.31 227.373 99.5174 227.751 100.589C228.138 101.689 229.255 102.431 229.547 103.558C229.862 104.771 229.131 106.028 229.233 107.28C229.318 108.341 229.2 108.961 228.08 109.346C227.511 109.54 226.904 109.731 226.449 110.152C226.322 110.268 225.464 111.711 225.856 111.788C224.724 111.561 223.417 111.19 223 110.11C222.777 109.526 222.887 108.85 223.174 108.291C223.461 107.734 223.905 107.274 224.363 106.848C224.628 106.604 224.904 106.358 225.075 106.042C225.414 105.405 225.254 104.616 224.978 103.946C224.705 103.275 224.324 102.633 224.236 101.916C223.968 99.7417 226.065 98.6368 226.866 96.8976C228.046 94.3332 225.831 91.1927 226.852 88.5618C227.169 87.7421 227.773 87.0691 228.394 86.4488C229.349 85.4933 230.463 84.5711 231.804 84.4188C233.523 84.225 234.906 85.6927 235.659 87.0525C235.858 87.4125 236.037 87.7864 236.186 88.1685C236.451 88.8415 236.553 88.8415 235.96 89.1572C234.972 89.6862 233.413 89.7776 232.318 90.0462C232.282 90.0517 232.246 90.06 232.21 90.0711Z" fill="#51ACFD"/>
<path d="M228.554 156.123L235.549 179.236L243.015 192.992L248.519 192.23L246.05 174.675L249.408 156.001L228.554 156.123Z" fill="white"/>
<path d="M242.67 193.601C242.847 193.997 243.042 194.382 243.258 194.753C243.763 195.628 243.514 196.152 243.398 197.115C243.296 197.96 243.393 198.868 243.862 199.555C244.414 200.364 245.407 200.729 246.342 200.693C248.003 200.63 248.489 199.143 249.046 197.683C249.306 197.002 249.568 196.321 249.827 195.639C250.02 195.135 250.189 194.487 249.827 194.102C249.719 193.986 249.573 193.914 249.482 193.781C249.402 193.665 249.377 193.515 249.353 193.374C249.209 192.518 249.107 191.632 248.9 190.793C247.747 190.887 246.684 190.79 245.498 190.959C244.461 191.109 243.429 191.311 242.408 191.563C242.278 191.596 242.129 191.643 242.079 191.776C242.044 191.873 242.071 191.981 242.102 192.078C242.259 192.598 242.449 193.105 242.67 193.601Z" fill="#51ACFD"/>
<path d="M220.271 155.292L222.352 181.319L226.948 203.18L231.471 202.377L232.42 184.803L237.052 156.519L220.271 155.292Z" fill="white"/>
<path d="M226.493 202.543C226.656 203.33 226.764 204.238 226.38 204.836C225.961 205.492 225.13 205.681 224.849 206.509C224.733 206.855 224.76 207.237 224.824 207.6C224.871 207.871 224.943 208.148 225.111 208.356C225.387 208.702 225.853 208.777 226.275 208.832C226.932 208.915 227.597 208.998 228.251 208.896C229.376 208.719 230.339 208.015 231.195 207.254C231.92 206.606 232.679 206.091 232.627 204.93C232.61 204.584 232.494 204.252 232.392 203.922C232.13 203.055 231.978 202.15 231.951 201.239C230.069 201.399 228.187 201.56 226.308 201.721C226.361 201.961 226.43 202.244 226.493 202.543Z" fill="#51ACFD"/>
<path d="M227.291 109.454C227.249 109.509 227.205 109.565 227.161 109.623C226.19 110.935 225.475 112.403 224.84 113.904C219.342 126.973 218.061 141.421 217.854 155.605C217.813 158.455 218.591 158.962 221.201 158.962C224.209 158.962 227.216 159.001 230.221 159.02C233.725 159.042 237.229 159.064 240.733 159.089C242.386 159.1 248.781 160.111 249.741 158.58C250.048 158.089 250.045 157.475 250.034 156.899C249.968 153.556 249.877 150.213 249.769 146.871C249.38 135.023 248.638 122.841 243.633 112.104C242.758 110.226 240.388 105.621 237.676 107.285C237.298 107.518 236.989 107.842 236.66 108.138C235.8 108.914 234.657 109.52 233.521 109.301C232.591 109.124 231.846 108.426 231.272 107.67C231.173 107.54 231.068 107.399 230.91 107.352C230.775 107.313 230.629 107.352 230.494 107.396C229.009 107.861 228.187 108.299 227.291 109.454Z" fill="#56585B"/>
</g>
<defs>
<clipPath id="clip0">
<rect width="276" height="214" fill="white"/>
</clipPath>
</defs>
</svg>
