<svg width="115" height="115" viewBox="0 0 115 115" fill="none" xmlns="http://www.w3.org/2000/svg">
<path d="M57.5001 1.40159C48.0244 1.39742 38.7313 4.0077 30.6436 8.94511C22.5559 13.8825 15.9873 20.9556 11.6607 29.3859C7.33413 37.8161 5.41735 47.2767 6.12135 56.7262C6.82536 66.1756 10.1229 75.2477 15.6509 82.9438V103.105C15.6438 104.482 15.9092 105.847 16.4318 107.121C16.9543 108.395 17.7238 109.553 18.6959 110.528C19.6679 111.503 20.8233 112.277 22.0955 112.804C23.3678 113.331 24.7317 113.601 26.1087 113.598C28.6663 113.609 31.1419 112.697 33.0806 111.029L43.0353 102.422C47.74 103.756 52.6101 104.415 57.5001 104.38C67.6841 104.38 77.6393 101.36 86.1072 95.7024C94.5751 90.0448 101.175 82.0035 105.074 72.5952C108.972 63.1869 109.993 52.8339 108.009 42.8452C106.024 32.8565 101.122 23.6806 93.9228 16.4774C89.1498 11.6814 83.4732 7.87953 77.2213 5.2918C70.9694 2.70406 64.2664 1.38182 57.5001 1.40159ZM57.5001 94.5875C51.7769 94.5633 46.1174 93.3837 40.8611 91.1196L40.34 90.9039L25.965 103.123V80.2125L25.4439 79.6016C19.3711 72.326 15.9598 63.1976 15.7727 53.7225C15.5857 44.2473 18.6341 34.9915 24.415 27.4819C30.1959 19.9723 38.364 14.6575 47.5717 12.4145C56.7794 10.1715 66.4767 11.1341 75.0637 15.1436C83.6507 19.1532 90.6145 25.97 94.8062 34.4696C98.9979 42.9692 100.167 52.6437 98.1208 61.8972C96.0746 71.1506 90.9352 79.4301 83.5505 85.3698C76.1659 91.3095 66.9771 94.5546 57.5001 94.5695V94.5875Z" fill="#56585B"/>
<path d="M85.9266 35.9375L54.8048 74.9297C54.3051 75.5458 53.6756 76.0439 52.9612 76.3887C52.2468 76.7335 51.4651 76.9163 50.6719 76.9242C49.8655 76.9039 49.0739 76.7029 48.3555 76.3359C47.6372 75.9689 47.0103 75.4454 46.5212 74.8039L29.0555 53.7985C28.4462 53.0322 28.1145 52.0821 28.1145 51.1031C28.1145 50.1242 28.4462 49.1741 29.0555 48.4078C29.6488 47.6438 30.4835 47.1035 31.4234 46.8751C32.3632 46.6466 33.3528 46.7435 34.2305 47.15L50.2946 59.7281L79.7633 29.9C80.5933 29.2431 81.6344 28.9115 82.6914 28.9674C83.7485 29.0232 84.7488 29.4627 85.5049 30.2034C86.2611 30.9441 86.7211 31.9352 86.7987 32.9908C86.8763 34.0465 86.5663 35.0942 85.9266 35.9375Z" fill="#51ACFD"/>
</svg>
