<svg width="11" height="11" viewBox="0 0 11 11" fill="none" xmlns="http://www.w3.org/2000/svg">
<path d="M7.18888 6.88745L5.04167 8.93706L2.89446 6.88745C1.28517 6.95405 0 8.21089 0 9.76206V9.96831C0 10.5376 0.48391 10.9996 1.08036 10.9996H9.00298C9.59942 10.9996 10.0833 10.5376 10.0833 9.96831V9.76206C10.0833 8.21089 8.79816 6.95405 7.18888 6.88745ZM0.306101 1.71401L0.450149 1.74624V3.00093C0.292597 3.09116 0.18006 3.248 0.18006 3.43706C0.18006 3.61753 0.283594 3.76792 0.429892 3.8603L0.078776 5.19878C0.0405134 5.34702 0.126042 5.49956 0.249833 5.49956H1.19064C1.31443 5.49956 1.39996 5.34702 1.3617 5.19878L1.01058 3.8603C1.15688 3.76792 1.26042 3.61753 1.26042 3.43706C1.26042 3.248 1.14788 3.09116 0.990327 3.00093V1.87085L2.47582 2.21245C2.28225 2.58198 2.16071 2.99448 2.16071 3.43706C2.16071 4.95601 3.45039 6.18706 5.04167 6.18706C6.63294 6.18706 7.92262 4.95601 7.92262 3.43706C7.92262 2.99448 7.80333 2.58198 7.60751 2.21245L9.77498 1.71401C10.1846 1.61948 10.1846 1.13179 9.77498 1.03726L5.48956 0.0489746C5.19697 -0.017627 4.88862 -0.017627 4.59602 0.0489746L0.306101 1.03511C-0.101283 1.12964 -0.101283 1.61948 0.306101 1.71401Z" fill="white"/>
</svg>
