<svg xmlns="http://www.w3.org/2000/svg" viewBox="0 0 24 24" width="24" height="24" fill="#000000"><path class="cls-1" d="M12,20.5C4.77,20.5.72,12.56.55,12.22a.49.49,0,0,1,0-.44C.72,11.44,4.77,3.5,12,3.5s11.28,7.94,11.45,8.28a.49.49,0,0,1,0,.44C23.28,12.56,19.23,20.5,12,20.5ZM1.57,12C2.27,13.27,6,19.5,12,19.5s9.73-6.23,10.43-7.5C21.73,10.73,18,4.5,12,4.5S2.27,10.73,1.57,12Z"/><path class="cls-1" d="M12,15.5A3.5,3.5,0,1,1,15.5,12,3.5,3.5,0,0,1,12,15.5Zm0-6A2.5,2.5,0,1,0,14.5,12,2.5,2.5,0,0,0,12,9.5Z"/></svg>