<svg width="24" height="24" viewBox="0 0 24 24" fill="none" xmlns="http://www.w3.org/2000/svg">
<path d="M5.67188 13.4531C5.67188 13.8415 5.35712 14.1562 4.96875 14.1562C4.58038 14.1562 4.26562 13.8415 4.26562 13.4531C4.26562 13.0648 4.58038 12.75 4.96875 12.75C5.35712 12.75 5.67188 13.0648 5.67188 13.4531Z" fill="#677986"/>
<path d="M10.2643 4.30065C10.0344 4.4226 9.89062 4.66155 9.89062 4.92192V10.6407C9.89062 10.9011 10.0344 11.14 10.2643 11.262C10.4952 11.3843 10.7737 11.3682 10.9882 11.2228L15.2069 8.36339C15.4001 8.23247 15.5156 8.01458 15.5156 7.7813C15.5156 7.54802 15.4001 7.33013 15.2069 7.19921L10.9882 4.33983C10.7728 4.1939 10.4943 4.1787 10.2643 4.30065ZM11.2969 6.24797L13.5593 7.7813L11.2969 9.31463V6.24797Z" fill="#677986"/>
<path d="M23.2969 2.8125C23.6852 2.8125 24 2.49774 24 2.10938C24 1.72101 23.6852 1.40625 23.2969 1.40625H12.7031V0.703125C12.7031 0.314758 12.3884 0 12 0C11.6116 0 11.2969 0.314758 11.2969 0.703125V1.40625H0.703125C0.314758 1.40625 0 1.72101 0 2.10938C0 2.49774 0.314758 2.8125 0.703125 2.8125H1.40625V15.5625H0.703125C0.314758 15.5625 0 15.8773 0 16.2656C0 16.654 0.314758 16.9688 0.703125 16.9688H10.537L6.03699 22.5938H4.96875C4.58038 22.5938 4.26562 22.9085 4.26562 23.2969C4.26562 23.6852 4.58038 24 4.96875 24H6.375C6.58868 24 6.79065 23.903 6.92413 23.7361L11.2969 18.2701V23.2969C11.2969 23.6852 11.6116 24 12 24C12.3884 24 12.7031 23.6852 12.7031 23.2969V18.2701L17.0759 23.7361C17.2094 23.903 17.4113 24 17.625 24H19.0312C19.4196 24 19.7344 23.6852 19.7344 23.2969C19.7344 22.9085 19.4196 22.5938 19.0312 22.5938H17.963L13.463 16.9688H23.2969C23.6852 16.9688 24 16.654 24 16.2656C24 15.8773 23.6852 15.5625 23.2969 15.5625H22.5938V2.8125H23.2969ZM21.1875 15.5625H2.8125V2.8125H21.1875V15.5625Z" fill="#677986"/>
<path d="M7.07812 13.4531C7.07812 13.8415 7.39288 14.1562 7.78125 14.1562H19.0781C19.4665 14.1562 19.7812 13.8415 19.7812 13.4531C19.7812 13.0648 19.4665 12.75 19.0781 12.75H7.78125C7.39288 12.75 7.07812 13.0648 7.07812 13.4531Z" fill="#677986"/>
</svg>
